<?xml version="1.0" standalone="no"?><!DOCTYPE svg PUBLIC "-//W3C//DTD SVG 1.1//EN" "http://www.w3.org/Graphics/SVG/1.1/DTD/svg11.dtd"><svg t="1668398242914" class="icon" viewBox="0 0 1024 1024" version="1.1" xmlns="http://www.w3.org/2000/svg" p-id="7984" xmlns:xlink="http://www.w3.org/1999/xlink" width="128" height="128"><path d="M864 0H160C108.8 0 64 44.8 64 96v832c0 51.2 44.8 96 96 96h704c51.2 0 96-44.8 96-96V96c0-51.2-44.8-96-96-96zM320 870.4c0 12.8-12.8 25.6-25.6 25.6H217.6c-12.8 0-25.6-12.8-25.6-25.6v-76.8c0-12.8 12.8-25.6 25.6-25.6h76.8c12.8 0 25.6 12.8 25.6 25.6v76.8z m0-256c0 12.8-12.8 25.6-25.6 25.6H217.6c-12.8 0-25.6-12.8-25.6-25.6v-76.8c0-12.8 12.8-25.6 25.6-25.6h76.8c12.8 0 25.6 12.8 25.6 25.6v76.8z m256 256c0 12.8-12.8 25.6-25.6 25.6h-76.8c-12.8 0-25.6-12.8-25.6-25.6v-76.8c0-12.8 12.8-25.6 25.6-25.6h76.8c12.8 0 25.6 12.8 25.6 25.6v76.8z m0-256c0 12.8-12.8 25.6-25.6 25.6h-76.8c-12.8 0-25.6-12.8-25.6-25.6v-76.8c0-12.8 12.8-25.6 25.6-25.6h76.8c12.8 0 25.6 12.8 25.6 25.6v76.8z m256 256c0 12.8-12.8 25.6-25.6 25.6h-76.8c-12.8 0-25.6-12.8-25.6-25.6V537.6c0-12.8 12.8-25.6 25.6-25.6h76.8c12.8 0 25.6 12.8 25.6 25.6v332.8z m0-512c0 12.8-12.8 25.6-25.6 25.6H217.6c-12.8 0-25.6-12.8-25.6-25.6V153.6C192 140.8 204.8 128 217.6 128h588.8c12.8 0 25.6 12.8 25.6 25.6v204.8z" p-id="7985"></path></svg>